<svg width="50" height="56" viewBox="0 0 50 56" fill="none" xmlns="http://www.w3.org/2000/svg">
<g clip-path="url(#clip0_196_514)">
<path d="M25.3808 55.9999C24.6301 55.9999 23.9294 55.7958 23.2787 55.4386L16.6223 51.4076C15.6214 50.8463 16.1218 50.6423 16.4222 50.5402C17.7735 50.081 18.0237 49.9789 19.4251 49.1625C19.5752 49.0604 19.7754 49.1115 19.9255 49.2135L25.0304 52.3261C25.2307 52.4282 25.4809 52.4282 25.631 52.3261L45.6002 40.5392C45.8004 40.4371 45.9005 40.2331 45.9005 39.9779V16.4552C45.9005 16.2001 45.8004 15.996 45.6002 15.8939L25.631 4.15808C25.4308 4.05603 25.1805 4.05603 25.0304 4.15808L5.06122 15.8939C4.86103 15.996 4.76093 16.2511 4.76093 16.4552V39.9779C4.76093 40.182 4.86103 40.4371 5.06122 40.5392L10.5165 43.7538C13.4693 45.2845 15.3211 43.4987 15.3211 41.7128V18.4962C15.3211 18.19 15.5714 17.884 15.9217 17.884H18.4742C18.7744 17.884 19.0747 18.1391 19.0747 18.4962V41.7128C19.0747 45.7438 16.9226 48.091 13.169 48.091C12.0179 48.091 11.1171 48.091 8.56457 46.8153L3.30954 43.7538C2.00829 42.9884 1.20752 41.5597 1.20752 40.029V16.5062C1.20752 14.9755 2.00829 13.5468 3.30954 12.7814L23.2787 0.994506C24.53 0.280152 26.2316 0.280152 27.4828 0.994506L47.452 12.7814C48.7533 13.5468 49.554 14.9755 49.554 16.5062V40.029C49.554 41.5597 48.7533 42.9884 47.452 43.7538L27.4828 55.5407C26.8822 55.7958 26.1315 55.9999 25.3808 55.9999Z" fill="black"/>
<path d="M31.5868 39.8249C22.8283 39.8249 21.0266 35.7429 21.0266 32.2732C21.0266 31.9671 21.2768 31.6609 21.6271 31.6609H24.2297C24.5299 31.6609 24.7802 31.865 24.7802 32.1712C25.1806 34.8755 26.3317 36.2022 31.6368 36.2022C35.8408 36.2022 37.6426 35.2327 37.6426 32.9365C37.6426 31.6099 37.1421 30.6404 30.5858 29.977C25.1305 29.4157 21.7273 28.1912 21.7273 23.7519C21.7273 19.6189 25.1305 17.1697 30.836 17.1697C37.2422 17.1697 40.3952 19.4148 40.7956 24.3132C40.7956 24.4663 40.7456 24.6194 40.6455 24.7725C40.5454 24.8745 40.3952 24.9766 40.2451 24.9766H37.5925C37.3422 24.9766 37.092 24.7725 37.042 24.5173C36.4414 21.7109 34.8899 20.7925 30.786 20.7925C26.1815 20.7925 25.631 22.4253 25.631 23.6499C25.631 25.1296 26.2817 25.5889 32.4876 26.4053C38.6435 27.2217 41.5463 28.3953 41.5463 32.7835C41.5463 37.2737 37.8928 39.8249 31.5868 39.8249Z" fill="black"/>
</g>
<defs>
<clipPath id="clip0_196_514">
<rect width="49.28" height="56" fill="white" transform="translate(0.653809)"/>
</clipPath>
</defs>
</svg>
