<svg width="24" height="42" viewBox="0 0 24 42" fill="none" xmlns="http://www.w3.org/2000/svg">
<g clip-path="url(#clip0_196_519)">
<path d="M16.6018 4.646C14.4266 2.5703 12.5535 0.462166 12.1708 0.0243245C12.1305 -0.00810818 12.0701 -0.00810818 12.0298 0.0243245C11.6471 0.462166 9.77398 2.5703 7.59876 4.646C-11.0719 23.7975 10.5394 36.722 10.5394 36.722L10.7206 36.8193C10.8817 38.814 11.2846 41.6842 11.2846 41.6842H12.0902H12.8958C12.8958 41.6842 13.2987 38.8301 13.4598 36.8193L13.641 36.7059C13.6612 36.7059 35.2724 23.7975 16.6018 4.646ZM12.0902 36.4301C12.0902 36.4301 11.1234 35.7652 10.8616 35.4246V35.3923L12.0298 14.538C12.0298 14.4731 12.1506 14.4731 12.1506 14.538L13.3188 35.3923V35.4246C13.057 35.7652 12.0902 36.4301 12.0902 36.4301Z" fill="black"/>
</g>
<defs>
<clipPath id="clip0_196_519">
<rect width="24" height="41.6842" fill="white"/>
</clipPath>
</defs>
</svg>
